<svg xmlns="http://www.w3.org/2000/svg" width="75" height="22" viewBox="0 0 75 22">
  <g id="组_7014" data-name="组 7014" transform="translate(-142 -220)">
    <rect id="矩形_145502" data-name="矩形 145502" width="75" height="22" transform="translate(142 220)" fill="rgba(255,255,255,0)"/>
    <g id="组_7013" data-name="组 7013">
      <path id="路径_26925" data-name="路径 26925" d="M.449,0H-4L3.336,14H7.785Z" transform="translate(146 224)" fill="#11cbd1"/>
      <path id="路径_26925-2" data-name="路径 26925" d="M.449,0H-4L3.336,14H7.785Z" transform="translate(155 224)" fill="#11cbd1"/>
      <path id="路径_26925-3" data-name="路径 26925" d="M.449,0H-4L3.336,14H7.785Z" transform="translate(164 224)" fill="#23b2ba"/>
      <path id="路径_26925-4" data-name="路径 26925" d="M.449,0H-4L3.336,14H7.785Z" transform="translate(173 224)" fill="#23b2ba"/>
      <path id="路径_26925-5" data-name="路径 26925" d="M.449,0H-4L3.336,14H7.785Z" transform="translate(182 224)" fill="#2f9faa"/>
      <path id="路径_26925-6" data-name="路径 26925" d="M.449,0H-4L3.336,14H7.785Z" transform="translate(191 224)" fill="#2f9faa"/>
      <path id="路径_26925-7" data-name="路径 26925" d="M.449,0H-4L3.336,14H7.785Z" transform="translate(200 224)" fill="#418595"/>
      <path id="路径_26925-8" data-name="路径 26925" d="M.449,0H-4L3.336,14H7.785Z" transform="translate(209 224)" fill="#418595"/>
    </g>
  </g>
</svg>
