<svg xmlns="http://www.w3.org/2000/svg" width="22" height="22" viewBox="0 0 22 22">
  <g id="组_7016" data-name="组 7016" transform="translate(-5 -220)">
    <rect id="矩形_145503" data-name="矩形 145503" width="22" height="22" transform="translate(5 220)" fill="rgba(255,255,255,0)"/>
    <g id="组_7037" data-name="组 7037" transform="translate(10268.917 20834)">
      <path id="减去_1" data-name="减去 1" d="M8,13.417H8v-2.23A3.834,3.834,0,0,0,10.685,8.5h2.231A6,6,0,0,1,8,13.416Zm-2,0H6A6,6,0,0,1,1.083,8.5H3.314A3.834,3.834,0,0,0,6,11.186v2.23ZM12.916,6.5H10.685A3.834,3.834,0,0,0,8,3.815V1.584A6,6,0,0,1,12.916,6.5Zm-9.6,0H1.083A6,6,0,0,1,6,1.584V3.815A3.834,3.834,0,0,0,3.315,6.5Z" transform="translate(-10260 -20610.5)" fill="#84f6ff"/>
      <circle id="椭圆_3" data-name="椭圆 3" cx="2" cy="2" r="2" transform="translate(-10255 -20605)" fill="#84f6ff"/>
    </g>
  </g>
</svg>
